# xmcd
#
# Track frame offsets: 
#        150
#        14646
#        34286
#        52782
#        71388
#        80968
#        94977
#        111502
#        133934
#        156178
#
# Disc length: 2381 seconds
#
# Revision: 0
# Processed by: cddbd v1.5.2PL0 Copyright (c) Steve Scherf et al.
# Submitted via: ExactAudioCopy v1.0b3
#
DISCID=8e094b0a
DTITLE=Mors Subita - Degeneration
DYEAR=2015
DGENRE=Melodic Death Metal
TTITLE0=Degeneration
TTITLE1=Resistance
TTITLE2=End Complete
TTITLE3=Cult Of Mischief
TTITLE4=World Separated
TTITLE5=Release
TTITLE6=Reform
TTITLE7=Divine Is A Fraud
TTITLE8=Turmoil
TTITLE9=Last Jooruney
EXTD=
EXTT0=
EXTT1=
EXTT2=
EXTT3=
EXTT4=
EXTT5=
EXTT6=
EXTT7=
EXTT8=
EXTT9=
PLAYORDER=
